<svg width="41" height="40" viewBox="0 0 41 40" fill="none" xmlns="http://www.w3.org/2000/svg">
<path d="M20.4113 39.9951C14.146 39.9951 7.88074 39.9951 1.62657 39.9951C1.48242 39.9951 1.33827 40.0062 1.19411 39.9951C0.739463 39.9618 0.462235 39.6957 0.462235 39.241C0.451146 38.1543 0.451146 37.0565 0.462235 35.9698C0.462235 35.493 0.706195 35.2379 1.17193 35.1825C1.33826 35.1603 1.51569 35.1714 1.68202 35.1714C6.90491 35.1714 12.1278 35.1714 17.3507 35.1714C18.016 35.1714 18.016 35.1714 18.016 34.4949C18.016 29.5715 18.016 24.648 18.016 19.7356C18.016 19.1035 18.016 19.1035 17.4062 19.1035C14.4454 19.1035 11.4847 19.1035 8.52391 19.1035C8.08035 19.1035 8.08034 19.1035 8.29103 19.4916C9.34448 21.4211 10.3979 23.3506 11.4403 25.28C11.6177 25.6238 11.8284 25.8345 12.2276 25.7569C12.2941 25.7458 12.3607 25.7569 12.4272 25.7569C13.0038 25.7901 13.2478 26.0341 13.2256 26.5996C13.148 28.7176 12.272 30.4364 10.5421 31.6673C6.60552 34.4839 1.09431 32.0332 0.495507 27.2317C0.484418 27.1762 0.484414 27.1319 0.484414 27.0764C0.417881 25.9121 0.52877 25.779 1.7042 25.7569C1.91489 25.7569 2.03687 25.6792 2.13667 25.4907C3.23448 23.4836 4.3212 21.4654 5.43009 19.4694C5.58534 19.1922 5.58533 19.0813 5.2194 19.0924C4.5097 19.1146 3.80001 19.1035 3.09032 19.0924C2.5026 19.0924 2.22538 18.8484 2.22538 18.3605C2.22538 17.8948 2.52478 17.6397 3.1125 17.6287C5.0198 17.6287 6.92709 17.6287 8.83439 17.6287C11.7286 17.6287 14.6228 17.6287 17.517 17.6287C18.0382 17.6287 18.0382 17.6176 18.0493 17.0964C18.0604 16.0873 18.0604 16.0873 17.0624 16.0873C15.0331 16.0873 13.0149 16.0873 10.9857 16.0873C10.1651 16.0873 9.97656 15.8877 9.96547 15.056C9.96547 14.2022 9.96547 13.3483 9.96547 12.4945C9.96547 11.9289 10.1207 11.7182 10.6752 11.6406C10.9302 11.6074 10.9967 11.4965 11.0189 11.2636C11.2296 9.41175 11.8506 7.71514 12.9706 6.20704C14.0573 4.73221 15.4434 3.62331 17.1622 2.96907C17.4727 2.84709 17.6058 2.70293 17.5725 2.35917C17.517 1.83799 17.4949 1.30572 17.4838 0.784543C17.4727 0.274451 17.7388 0.00831671 18.26 0.00831671C19.757 -0.00277224 21.2651 -0.00277224 22.7621 0.00831671C23.2722 0.00831671 23.5383 0.28554 23.5273 0.795632C23.5162 1.35008 23.4829 1.89344 23.4385 2.44789C23.4164 2.69184 23.5162 2.82491 23.749 2.92471C27.364 4.43281 29.3379 7.19396 29.9367 11.0086C29.9921 11.3634 30.0365 11.6406 30.5022 11.685C30.8571 11.7072 31.0345 11.9955 31.0345 12.3614C31.0345 13.3372 31.0456 14.3131 31.0345 15.2778C31.0234 15.8101 30.724 16.0762 30.1252 16.0762C27.9407 16.0762 25.7561 16.0762 23.5716 16.0762C22.9617 16.0762 22.9506 16.0762 22.9617 16.675C22.9728 17.7728 22.8286 17.6176 23.9043 17.6176C28.4729 17.6176 33.0305 17.6176 37.5991 17.6176C37.7433 17.6176 37.8874 17.6065 38.0316 17.6176C38.5084 17.6508 38.7856 17.9281 38.7746 18.3605C38.7635 18.8041 38.4973 19.0591 38.0094 19.0702C37.2775 19.0813 36.5346 19.0702 35.8027 19.0702C35.3813 19.0702 35.3703 19.0924 35.5588 19.4362C36.6455 21.4211 37.7433 23.3949 38.8189 25.3909C38.952 25.6238 39.0851 25.7679 39.3734 25.7236C39.4843 25.7125 39.6062 25.7236 39.7282 25.7236C40.2827 25.7569 40.5266 26.0008 40.5155 26.5442C40.4712 28.3295 39.8169 29.8709 38.5084 31.0685C36.6677 32.754 34.5053 33.253 32.1323 32.4768C29.8258 31.7227 28.4286 30.0705 27.8852 27.6974C27.7965 27.2982 27.7411 26.899 27.7632 26.4887C27.7854 26.0008 28.0183 25.6903 28.484 25.7458C29.1826 25.8234 29.4377 25.4575 29.7149 24.9252C30.6907 23.0844 31.7109 21.2769 32.7089 19.4583C32.9196 19.0702 32.9196 19.0702 32.476 19.0702C29.4709 19.0702 26.4769 19.0813 23.4718 19.0591C23.0615 19.0591 22.9728 19.2033 22.9728 19.5803C22.9839 24.5814 22.9839 29.5825 22.9839 34.5837C22.9839 35.1381 22.9839 35.1381 23.5716 35.1381C28.8167 35.1381 34.0728 35.1381 39.3179 35.1381C39.5064 35.1381 39.6839 35.1381 39.8724 35.1603C40.2937 35.2268 40.5266 35.493 40.5377 35.9143C40.5488 37.0011 40.5488 38.0989 40.5377 39.1856C40.5266 39.6735 40.2383 39.9507 39.7282 39.9618C39.1738 39.9729 38.6193 39.9618 38.076 39.9618C32.1212 39.9951 26.2662 39.9951 20.4113 39.9951ZM20.4223 38.5313C26.3882 38.5313 32.343 38.5313 38.3088 38.5313C38.4308 38.5313 38.5417 38.5202 38.6637 38.5313C38.9076 38.5424 38.9963 38.4315 38.9853 38.1987C38.9742 37.866 38.9853 37.5444 38.9853 37.2117C38.9853 36.6462 38.9853 36.6462 38.4086 36.6462C38.3643 36.6462 38.331 36.6462 38.2866 36.6462C26.3882 36.6462 14.5009 36.6462 2.60241 36.6462C2.48043 36.6462 2.36954 36.6573 2.24756 36.6462C1.99251 36.6351 1.89271 36.7571 1.9038 37.0011C1.91489 37.3005 1.9038 37.6109 1.9038 37.9103C1.9038 38.5202 1.9038 38.5202 2.5026 38.5202C8.46846 38.5313 14.4454 38.5313 20.4223 38.5313ZM20.4445 11.6074C22.9285 11.6074 25.4124 11.6074 27.9074 11.6074C28.484 11.6074 28.484 11.6074 28.4064 11.0196C28.3842 10.8422 28.351 10.6537 28.3177 10.4763C27.6967 7.73732 26.1775 5.68586 23.616 4.45499C23.3277 4.32192 23.2389 4.35519 23.2279 4.68785C23.1391 6.11833 23.0282 7.5488 22.9284 8.96819C22.8952 9.42284 22.6512 9.71115 22.1744 9.72224C21.0322 9.74442 19.8901 9.74442 18.7368 9.72224C18.2711 9.71115 18.0271 9.44501 17.9939 9.01254C17.883 7.59316 17.7832 6.18486 17.6834 4.76548C17.6501 4.28865 17.6501 4.27756 17.2287 4.48825C14.5119 5.83002 12.9817 8.04781 12.5048 11.0196C12.4161 11.5963 12.4272 11.6074 13.0038 11.6074C15.4767 11.6074 17.9606 11.6074 20.4445 11.6074ZM19.502 25.5794C19.502 27.2317 19.502 28.895 19.502 30.5473C19.502 31.9001 19.502 33.253 19.502 34.6058C19.502 35.1492 19.502 35.1492 20.0564 35.1492C20.3115 35.1492 20.5554 35.1492 20.8105 35.1492C21.3871 35.1492 21.3871 35.1492 21.3871 34.5504C21.3871 28.5845 21.3871 22.6076 21.3871 16.6417C21.3871 16.5974 21.3871 16.5641 21.3871 16.5198C21.4314 16.1871 21.2984 16.0318 20.9435 16.0651C20.6441 16.0873 20.3336 16.0651 20.0342 16.0651C19.4909 16.0651 19.4909 16.0651 19.4909 16.6196C19.502 19.6136 19.502 22.5965 19.502 25.5794ZM6.83838 27.1984C5.36355 27.1984 3.88873 27.1984 2.41389 27.1984C1.97034 27.1984 1.93707 27.2539 2.04796 27.6863C2.59132 29.8376 4.55407 31.3568 6.80512 31.3568C9.07836 31.3568 11.0411 29.8487 11.5845 27.6752C11.6953 27.2317 11.6843 27.1984 11.2185 27.1984C9.75478 27.1984 8.30212 27.1984 6.83838 27.1984ZM34.0839 27.1984C32.6091 27.1984 31.1343 27.1984 29.6705 27.1984C29.227 27.1984 29.1826 27.2539 29.2935 27.6752C29.8369 29.8265 31.8107 31.3568 34.0396 31.3568C36.3128 31.3679 38.2756 29.8487 38.83 27.6752C38.952 27.2095 38.9298 27.1873 38.4308 27.1873C36.9782 27.1984 35.5366 27.1984 34.0839 27.1984ZM20.4445 13.0711C17.7499 13.0711 15.0553 13.0711 12.3607 13.0711C11.3738 13.0711 11.3738 13.0711 11.3849 14.0469C11.3849 14.6125 11.3848 14.6125 11.9504 14.6125C17.4616 14.6125 22.9728 14.6125 28.4729 14.6125C29.5153 14.6125 29.4931 14.6125 29.5153 13.5812C29.5264 13.182 29.4044 13.0711 29.0052 13.0711C26.1442 13.0822 23.2944 13.0711 20.4445 13.0711ZM34.0618 25.7347C34.9821 25.7347 35.9025 25.7347 36.8229 25.7347C37.2554 25.7347 37.2665 25.7125 37.0558 25.3355C36.1243 23.65 35.1928 21.9534 34.2503 20.2678C34.1948 20.168 34.1837 20.0128 34.0396 20.0239C33.9287 20.035 33.8954 20.168 33.8511 20.2567C32.9085 21.9755 31.977 23.6943 31.0234 25.402C30.8792 25.6571 30.9236 25.7458 31.223 25.7458C32.1766 25.7347 33.1192 25.7347 34.0618 25.7347ZM6.8273 19.9241C6.77185 20.0128 6.72749 20.0571 6.69423 20.1126C5.72949 21.8757 4.76475 23.6389 3.78892 25.402C3.6115 25.7236 3.74457 25.7458 4.02179 25.7458C5.87365 25.7458 7.73659 25.7458 9.58845 25.7458C9.99874 25.7458 10.0098 25.7347 9.79914 25.3577C9.30014 24.4373 8.79003 23.5058 8.29103 22.5854C7.81421 21.7094 7.33739 20.8334 6.8273 19.9241ZM20.4113 1.46097C20.1008 1.46097 19.7792 1.46097 19.4687 1.46097C18.9586 1.46097 18.9364 1.47206 18.9697 1.95997C19.0917 3.97816 19.2358 5.99635 19.3689 8.01454C19.38 8.24741 19.502 8.30285 19.7016 8.29176C20.1784 8.28067 20.6441 8.26958 21.121 8.29176C21.4647 8.31394 21.5312 8.16978 21.5534 7.85929C21.6089 6.86129 21.6976 5.87437 21.7641 4.87637C21.8306 3.86727 21.8861 2.85818 21.9526 1.84908C21.9748 1.56077 21.8639 1.43879 21.5756 1.44988C21.1764 1.47206 20.7883 1.46097 20.4113 1.46097Z" fill="#711134"/>
</svg>
