<svg width="21" height="20" viewBox="0 0 41 40" fill="none" xmlns="http://www.w3.org/2000/svg">
<path d="M20.5229 0.000388842C31.4576 -0.0453632 40.4936 8.97923 40.5051 19.9826C40.5165 31.0089 31.469 40.1021 20.3055 39.9991C9.41654 39.8962 0.494884 30.9745 0.494884 20.0055C0.483446 8.95636 9.53092 -0.0682393 20.5229 0.000388842ZM20.5343 1.21282C10.2172 1.20138 1.7645 9.56257 1.70731 19.7882C1.65012 30.2768 10.0228 38.7066 20.3856 38.7638C30.8171 38.8096 39.2583 30.4026 39.2698 19.994C39.2926 9.66551 30.8857 1.23569 20.5343 1.21282Z" fill="#711134"/>
<path d="M22.7762 7.38943C22.7419 7.91558 22.7304 8.44172 22.6847 8.96787C22.6618 9.2767 22.7876 9.43683 23.0621 9.56265C25.304 10.6035 27.5229 11.6672 29.7648 12.6967C30.2452 12.914 30.4739 13.2114 30.4282 13.749C30.3939 14.1607 30.4282 14.5839 30.4168 14.9957C30.4168 15.7049 30.1422 15.9107 29.4445 15.7392C27.5458 15.2702 25.6471 14.8013 23.7598 14.3323C23.5082 14.2637 23.2451 14.2065 22.9935 14.1379C22.5588 14.0349 22.5245 14.0578 22.5245 14.5268C22.5131 16.048 22.4559 17.5693 22.353 19.0905C22.3415 19.365 22.4216 19.5595 22.6389 19.731C23.1307 20.1085 23.6111 20.5088 24.103 20.8977C24.366 21.1036 24.4919 21.3552 24.4919 21.6869C24.4804 22.1445 24.5033 22.602 24.4804 23.0595C24.4461 23.6657 24.0458 23.8945 23.5082 23.6314C22.6503 23.2082 21.7925 22.785 20.9461 22.3389C20.6373 22.1788 20.3742 22.1673 20.0539 22.3275C19.2189 22.7736 18.3725 23.1853 17.5261 23.5971C16.9199 23.8945 16.5196 23.6657 16.4853 22.9909C16.4853 22.968 16.4853 22.9337 16.4853 22.9108C16.5081 20.8177 16.2222 21.4239 17.7778 20.2C18.384 19.7196 18.6814 19.285 18.6013 18.45C18.464 17.1461 18.4983 15.8192 18.464 14.5039C18.4526 14.0578 18.4297 14.0349 17.9722 14.1493C15.8447 14.6754 13.7173 15.1902 11.6012 15.7163C10.812 15.9107 10.5718 15.7277 10.5718 14.9271C10.5718 14.4696 10.5832 14.012 10.5718 13.5545C10.5604 13.1656 10.7205 12.9369 11.0636 12.7767C13.2826 11.7359 15.5016 10.6836 17.7206 9.64272C18.3497 9.34533 18.3611 9.35677 18.2925 8.68192C18.2124 7.96133 18.2238 7.24073 18.2238 6.52014C18.2353 5.28483 19.2304 4.3126 20.4542 4.3126C21.7239 4.30116 22.7304 5.26196 22.7533 6.49726C22.7762 6.80609 22.7647 7.10348 22.7762 7.38943Z" fill="#711134"/>
<path d="M34.7517 20.4402C34.7517 21.5611 34.7403 22.682 34.7517 23.8029C34.7632 24.5121 34.5459 25.1298 34.1226 25.7017C32.7158 27.5775 31.3318 29.4648 29.9135 31.3177C29.2958 32.1184 28.9641 32.9991 28.9412 34.0057C28.9298 34.2687 28.8383 34.3374 28.5981 34.3374C26.6879 34.3259 24.7778 34.3259 22.8562 34.3374C22.5702 34.3374 22.4673 34.2344 22.4673 33.9485C22.4787 32.3243 22.4444 30.7001 22.4902 29.0873C22.5131 28.1723 22.8791 27.3487 23.5425 26.7082C25.0065 25.3356 26.4821 23.9631 27.9804 22.6363C28.8726 21.847 30.1537 21.8585 31.0458 22.5791C31.4576 22.9108 31.469 23.1624 31.103 23.5399C29.7305 24.9239 28.3464 26.3079 26.9739 27.7033C26.8709 27.8062 26.768 27.8978 26.6879 28.0121C26.5507 28.218 26.5392 28.4353 26.7223 28.6183C26.8938 28.8014 27.1111 28.8242 27.3285 28.6755C27.4657 28.584 27.5915 28.4697 27.7059 28.3553C29.0442 27.0285 30.371 25.6788 31.7092 24.3634C32.1782 23.9059 32.3955 23.3912 32.3841 22.7392C32.3726 20.7947 32.3726 18.8617 32.3841 16.9173C32.3841 16.0708 32.8302 15.5561 33.5622 15.5676C34.2942 15.5676 34.7632 16.0937 34.7632 16.9173C34.7517 18.0839 34.7517 19.262 34.7517 20.4402Z" fill="#711134"/>
<path d="M6.24819 20.4516C6.24819 19.2277 6.23675 18.0153 6.24819 16.7914C6.25962 15.8078 7.25473 15.2359 8.06683 15.7277C8.46716 15.9793 8.62729 16.3454 8.62729 16.8143C8.62729 18.7817 8.63873 20.749 8.61585 22.7163C8.61585 23.3683 8.82174 23.883 9.2907 24.352C10.6404 25.6788 11.9786 27.0285 13.3283 28.3782C13.4313 28.4811 13.5228 28.5726 13.6371 28.6527C13.8545 28.8128 14.0832 28.8357 14.2777 28.6184C14.4607 28.4239 14.4607 28.1837 14.312 27.9664C14.2319 27.8406 14.1061 27.7376 14.0032 27.6347C12.6649 26.2964 11.3152 24.9467 9.97698 23.6085C9.50802 23.1395 9.53089 22.8765 10.0914 22.4876C10.995 21.847 12.196 21.8928 13.0538 22.6477C14.5179 23.9516 15.9705 25.2899 17.4003 26.6396C18.1666 27.3602 18.5212 28.2752 18.5326 29.3275C18.5441 30.8373 18.5326 32.3471 18.5441 33.857C18.5441 34.2115 18.4525 34.3488 18.0751 34.3374C16.1993 34.3259 14.3349 34.3259 12.459 34.3374C12.2303 34.3374 12.0701 34.3374 12.0587 34.0171C12.0473 32.9648 11.6584 32.0612 11.0293 31.2262C9.66815 29.4419 8.34134 27.6347 6.98022 25.8504C6.47694 25.1984 6.22531 24.4892 6.24819 23.6543C6.27106 22.5905 6.24819 21.5268 6.24819 20.4516Z" fill="#711134"/>
</svg>
