<svg width="39" height="40" viewBox="0 0 39 40" fill="none" xmlns="http://www.w3.org/2000/svg">
<path d="M23.7233 0C28.9867 0 32.715 3.27749 33.2755 7.70027C33.8847 12.5495 30.4244 17.0698 25.5996 17.5815C21.8226 17.9835 18.8862 16.4849 16.888 13.244C16.7297 12.9881 16.5713 12.8297 16.2545 12.8541C14.9508 12.9516 13.9152 12.4886 13.245 11.3189C13.1597 11.1727 13.0501 11.124 12.8917 11.124C11.454 11.124 11.5758 10.9656 11.5636 12.3424C11.5636 12.6104 11.6368 12.781 11.8804 12.9394C12.843 13.512 13.3425 14.3649 13.2938 15.4858C13.2694 16.0463 13.44 16.3631 13.9395 16.6799C16.3519 18.2029 17.7531 20.396 18.0455 23.247C18.5451 27.9622 15.2919 32.1535 10.5767 32.8967C5.75189 33.6521 1.03669 30.0944 0.524963 25.233C0.122891 21.4194 1.62152 18.5075 4.87464 16.4849C5.11832 16.3387 5.22798 16.1803 5.21579 15.9001C5.15487 14.572 5.5935 13.4998 6.81189 12.8297C6.99465 12.7323 6.99465 12.5617 6.99465 12.3789C7.00684 11.7941 6.94592 11.1971 7.04339 10.6122C7.48201 8.19982 9.43145 6.55498 11.8926 6.49406C11.9779 6.49406 12.0632 6.48188 12.1485 6.49406C12.7577 6.57935 13.1963 6.42096 13.574 5.83612C14.0979 5.03198 14.9873 4.7152 15.9499 4.76393C16.4616 4.7883 16.7297 4.60554 17.0099 4.16692C18.7644 1.44989 21.2986 0.0852878 23.7233 0ZM9.27306 14.0481C8.88317 14.0481 8.49328 14.0359 8.1034 14.0481C7.29925 14.0603 6.75098 14.5964 6.72661 15.4005C6.71442 15.7295 6.70224 16.0707 6.72661 16.3996C6.77534 16.9845 6.53166 17.3134 6.00775 17.5815C3.18107 18.9826 1.59715 21.9433 1.98704 25.0746C2.49877 29.2659 6.60477 32.2266 10.7595 31.3616C15.9011 30.3015 18.3136 24.3314 15.365 20.0061C14.6706 18.9826 13.7933 18.1541 12.6724 17.6424C12.051 17.3622 11.783 16.9601 11.8682 16.3022C11.9048 16.0341 11.8804 15.7539 11.8682 15.4858C11.8317 14.6086 11.2834 14.0725 10.4184 14.0603C10.0163 14.0359 9.63858 14.0481 9.27306 14.0481ZM14.4147 8.78465C14.4147 9.21109 14.4025 9.64971 14.4147 10.0761C14.4512 10.7585 14.9752 11.2945 15.6575 11.3311C15.9864 11.3555 16.3154 11.3555 16.6565 11.3433C17.2901 11.2945 17.68 11.5382 17.9724 12.1352C19.4467 15.0959 22.7973 16.6799 25.9651 16.0219C29.2792 15.3396 32.0084 12.2083 31.8622 8.46786C31.6916 4.08163 27.5125 0.536095 22.7973 1.65702C20.5432 2.19312 18.9106 3.54554 17.8871 5.61681C17.6678 6.05544 17.351 6.27475 16.8637 6.25038C16.4738 6.2382 16.0839 6.2382 15.694 6.25038C14.963 6.28693 14.4269 6.82303 14.4025 7.55407C14.4025 7.9805 14.4147 8.38258 14.4147 8.78465Z" fill="#711134"/>
<path d="M21.1037 30.0823C21.1037 27.1094 21.1037 24.1487 21.1037 21.1758C21.1037 20.3594 21.3108 20.1401 22.115 20.1401C27.2444 20.1401 32.3739 20.1401 37.5033 20.1401C38.3075 20.1401 38.539 20.3716 38.539 21.1636C38.539 27.0972 38.539 33.0308 38.539 38.9766C38.539 39.7807 38.3197 40 37.5155 40C32.3739 40 27.2322 40 22.0784 40C21.3108 40 21.1037 39.7929 21.1037 39.0253C21.1037 36.0524 21.1037 33.0673 21.1037 30.0823ZM22.5536 30.0823C22.5536 32.7384 22.5658 35.3823 22.5414 38.0384C22.5414 38.4648 22.6754 38.5745 23.0775 38.5745C27.549 38.5623 32.0084 38.5623 36.4799 38.5745C36.9063 38.5745 37.0525 38.4648 37.0525 38.0262C37.0403 32.7506 37.0403 27.4749 37.0403 22.2114C37.0403 21.6753 37.0282 21.6509 36.4799 21.6509C32.0084 21.6509 27.549 21.651 23.0775 21.6388C22.6632 21.6388 22.5414 21.7728 22.5414 22.187C22.5536 24.8188 22.5536 27.4505 22.5536 30.0823Z" fill="#711134"/>
<path d="M9.29742 28.1573C6.92154 28.1573 5.02084 26.281 5.02084 23.9173C5.02084 21.5901 6.89718 19.7016 9.26087 19.6651C11.5758 19.6285 13.5374 21.5901 13.5374 23.9173C13.5374 26.2688 11.6367 28.1573 9.29742 28.1573Z" fill="#711134"/>
<path d="M24.3202 4.58105C26.6596 4.58105 28.5724 6.49394 28.5724 8.8089C28.5603 11.1239 26.623 13.0733 24.3324 13.0855C21.9687 13.0977 20.068 11.1726 20.068 8.78453C20.068 6.43302 21.9565 4.58105 24.3202 4.58105Z" fill="#711134"/>
<path d="M29.8152 28.5836C28.6456 28.5836 27.4881 28.5836 26.3184 28.5836C26.1722 28.5836 26.026 28.5836 25.892 28.5714C25.5021 28.5105 25.2219 28.2059 25.2219 27.8404C25.2219 27.4748 25.4899 27.1702 25.8798 27.0971C25.9773 27.085 26.0747 27.085 26.1844 27.085C28.6212 27.085 31.0458 27.085 33.4826 27.085C33.641 27.085 33.7994 27.0971 33.9456 27.1581C34.2624 27.2799 34.4086 27.5236 34.3964 27.8647C34.3842 28.1815 34.2258 28.4008 33.9212 28.5105C33.7385 28.5836 33.5557 28.5714 33.3729 28.5714C32.1789 28.5836 30.9971 28.5836 29.8152 28.5836Z" fill="#711134"/>
<path d="M29.8031 32.4703C28.609 32.4703 27.415 32.4703 26.221 32.4703C25.9895 32.4703 25.758 32.4581 25.5631 32.3241C25.3316 32.1657 25.2097 31.9342 25.2341 31.6662C25.2585 31.3737 25.4168 31.1544 25.6971 31.0448C25.8798 30.9717 26.0626 30.9717 26.2454 30.9717C28.6212 30.9717 30.9971 30.9717 33.373 30.9717C33.4583 30.9717 33.5436 30.9717 33.6288 30.9839C34.1284 31.0326 34.4086 31.3128 34.3964 31.7393C34.3843 32.1657 34.0918 32.4581 33.6045 32.4703C32.6541 32.4825 31.7038 32.4825 30.7534 32.4825C30.4366 32.4703 30.1199 32.4703 29.8031 32.4703Z" fill="#711134"/>
<path d="M25.9042 35.1629C26.4403 35.1751 26.9033 35.3944 27.3176 35.7355C27.744 36.0889 28.0486 36.0767 28.4507 35.6868C28.7187 35.4309 28.9868 35.1629 29.267 34.907C29.6325 34.5902 30.0468 34.5902 30.3392 34.907C30.6316 35.2116 30.6316 35.6259 30.3027 35.9427C29.7422 36.4909 29.2548 37.1367 28.4507 37.3804C27.6953 37.5997 27.0252 37.4169 26.4403 36.9296C25.953 36.5397 25.758 36.5275 25.2707 36.9052C25.0514 37.0636 24.8442 37.2463 24.6006 37.3804C24.296 37.5509 24.0035 37.4535 23.7842 37.2098C23.5405 36.9417 23.4796 36.6006 23.7111 36.3447C24.2838 35.699 24.9417 35.1507 25.9042 35.1629Z" fill="#711134"/>
<path d="M29.8152 23.1861C30.7169 23.1861 31.6307 23.1739 32.5323 23.1861C32.9953 23.1983 33.3242 23.5394 33.3242 23.9293C33.3242 24.307 32.9953 24.6238 32.5566 24.6725C32.4592 24.6847 32.3617 24.6847 32.252 24.6847C30.6316 24.6847 28.9989 24.6847 27.3784 24.6847C27.2932 24.6847 27.2079 24.6847 27.1226 24.6847C26.623 24.6482 26.2941 24.3436 26.2941 23.9293C26.2941 23.5029 26.623 23.1983 27.1348 23.1983C28.0364 23.1739 28.9258 23.1861 29.8152 23.1861Z" fill="#711134"/>
</svg>
